<mxfile host="65bd71144e">
    <diagram id="CtGNTGl2CvL_PHKWBocC" name="Page-1">
        <mxGraphModel dx="1982" dy="1180" grid="1" gridSize="10" guides="1" tooltips="1" connect="1" arrows="1" fold="1" page="1" pageScale="1" pageWidth="827" pageHeight="1169" math="0" shadow="0">
            <root>
                <mxCell id="0"/>
                <mxCell id="1" parent="0"/>
                <mxCell id="2" value="Raw Data" style="swimlane;horizontal=0;whiteSpace=wrap;html=1;container=0;" parent="1" vertex="1">
                    <mxGeometry x="140" y="98" width="620" height="90" as="geometry">
                        <mxRectangle x="111" y="160" width="40" height="80" as="alternateBounds"/>
                    </mxGeometry>
                </mxCell>
                <mxCell id="13" value="HST Legacy Archive" style="shape=cylinder3;whiteSpace=wrap;html=1;boundedLbl=1;backgroundOutline=1;size=15;" parent="1" vertex="1">
                    <mxGeometry x="399" y="13" width="120" height="70" as="geometry"/>
                </mxCell>
                <mxCell id="152" style="edgeStyle=elbowEdgeStyle;elbow=vertical;html=1;entryX=0.605;entryY=0.004;entryDx=0;entryDy=0;entryPerimeter=0;" parent="1" source="38" target="113" edge="1">
                    <mxGeometry relative="1" as="geometry"/>
                </mxCell>
                <mxCell id="38" value="Pol 120" style="shape=cube;whiteSpace=wrap;html=1;boundedLbl=1;backgroundOutline=1;darkOpacity=0.05;darkOpacity2=0.1;movable=1;resizable=1;rotatable=1;deletable=1;editable=1;connectable=1;container=0;flipH=1;" parent="1" vertex="1">
                    <mxGeometry x="572" y="384" width="120" height="80" as="geometry"/>
                </mxCell>
                <mxCell id="149" style="edgeStyle=elbowEdgeStyle;elbow=vertical;html=1;entryX=0.6;entryY=0;entryDx=0;entryDy=0;entryPerimeter=0;" parent="1" source="34" target="111" edge="1">
                    <mxGeometry relative="1" as="geometry"/>
                </mxCell>
                <mxCell id="34" value="Pol 60" style="shape=cube;whiteSpace=wrap;html=1;boundedLbl=1;backgroundOutline=1;darkOpacity=0.05;darkOpacity2=0.1;movable=1;resizable=1;rotatable=1;deletable=1;editable=1;connectable=1;container=0;flipH=1;" parent="1" vertex="1">
                    <mxGeometry x="346" y="384" width="120" height="80" as="geometry"/>
                </mxCell>
                <mxCell id="141" style="edgeStyle=elbowEdgeStyle;elbow=vertical;html=1;entryX=0.598;entryY=0.01;entryDx=0;entryDy=0;entryPerimeter=0;" parent="1" source="6" target="106" edge="1">
                    <mxGeometry relative="1" as="geometry"/>
                </mxCell>
                <mxCell id="6" value="Pol 0" style="shape=cube;whiteSpace=wrap;html=1;boundedLbl=1;backgroundOutline=1;darkOpacity=0.05;darkOpacity2=0.1;movable=1;resizable=1;rotatable=1;deletable=1;editable=1;connectable=1;container=0;flipH=1;" parent="1" vertex="1">
                    <mxGeometry x="120" y="384" width="120" height="80" as="geometry"/>
                </mxCell>
                <mxCell id="153" style="edgeStyle=elbowEdgeStyle;elbow=vertical;html=1;entryX=0.606;entryY=-0.036;entryDx=0;entryDy=0;entryPerimeter=0;" parent="1" source="37" target="114" edge="1">
                    <mxGeometry relative="1" as="geometry"/>
                </mxCell>
                <mxCell id="154" style="edgeStyle=elbowEdgeStyle;elbow=vertical;html=1;entryX=0.75;entryY=0;entryDx=0;entryDy=0;exitX=0;exitY=0;exitDx=70;exitDy=80;exitPerimeter=0;" parent="1" source="37" target="113" edge="1">
                    <mxGeometry relative="1" as="geometry"/>
                </mxCell>
                <mxCell id="37" value="Uncertainty 120" style="shape=cube;whiteSpace=wrap;html=1;boundedLbl=1;backgroundOutline=1;darkOpacity=0.05;darkOpacity2=0.1;movable=1;resizable=1;rotatable=1;deletable=1;editable=1;connectable=1;container=0;flipH=1;" parent="1" vertex="1">
                    <mxGeometry x="678" y="384" width="120" height="80" as="geometry"/>
                </mxCell>
                <mxCell id="150" style="edgeStyle=elbowEdgeStyle;elbow=vertical;html=1;entryX=0.602;entryY=0.01;entryDx=0;entryDy=0;entryPerimeter=0;" parent="1" source="33" target="112" edge="1">
                    <mxGeometry relative="1" as="geometry"/>
                </mxCell>
                <mxCell id="155" style="edgeStyle=elbowEdgeStyle;elbow=vertical;html=1;entryX=0.75;entryY=0;entryDx=0;entryDy=0;exitX=0;exitY=0;exitDx=70;exitDy=80;exitPerimeter=0;" parent="1" source="33" target="111" edge="1">
                    <mxGeometry relative="1" as="geometry"/>
                </mxCell>
                <mxCell id="33" value="Uncertainty 60" style="shape=cube;whiteSpace=wrap;html=1;boundedLbl=1;backgroundOutline=1;darkOpacity=0.05;darkOpacity2=0.1;movable=1;resizable=1;rotatable=1;deletable=1;editable=1;connectable=1;container=0;flipH=1;" parent="1" vertex="1">
                    <mxGeometry x="452" y="384" width="120" height="80" as="geometry"/>
                </mxCell>
                <mxCell id="145" style="edgeStyle=elbowEdgeStyle;elbow=vertical;html=1;entryX=0.75;entryY=0;entryDx=0;entryDy=0;exitX=0;exitY=0;exitDx=70;exitDy=80;exitPerimeter=0;" parent="1" source="7" target="106" edge="1">
                    <mxGeometry relative="1" as="geometry"/>
                </mxCell>
                <mxCell id="151" style="edgeStyle=elbowEdgeStyle;elbow=vertical;html=1;entryX=0.599;entryY=-0.012;entryDx=0;entryDy=0;entryPerimeter=0;" parent="1" source="7" target="110" edge="1">
                    <mxGeometry relative="1" as="geometry"/>
                </mxCell>
                <mxCell id="7" value="Uncertainty 0" style="shape=cube;whiteSpace=wrap;html=1;boundedLbl=1;backgroundOutline=1;darkOpacity=0.05;darkOpacity2=0.1;movable=1;resizable=1;rotatable=1;deletable=1;editable=1;connectable=1;container=0;flipH=1;" parent="1" vertex="1">
                    <mxGeometry x="226" y="384" width="120" height="80" as="geometry"/>
                </mxCell>
                <mxCell id="259" style="edgeStyle=none;html=1;elbow=vertical;" parent="1" source="106" edge="1">
                    <mxGeometry relative="1" as="geometry">
                        <mxPoint x="170" y="567" as="targetPoint"/>
                    </mxGeometry>
                </mxCell>
                <mxCell id="106" value="Pol 0" style="rounded=0;whiteSpace=wrap;html=1;shadow=0;sketch=0;fillColor=default;rotation=0;" parent="1" vertex="1">
                    <mxGeometry x="120" y="485" width="100" height="60" as="geometry"/>
                </mxCell>
                <mxCell id="260" style="edgeStyle=none;html=1;elbow=vertical;" parent="1" source="110" edge="1">
                    <mxGeometry relative="1" as="geometry">
                        <mxPoint x="276" y="567" as="targetPoint"/>
                    </mxGeometry>
                </mxCell>
                <mxCell id="110" value="Uncertainty 0" style="rounded=0;whiteSpace=wrap;html=1;shadow=0;sketch=0;fillColor=default;rotation=0;" parent="1" vertex="1">
                    <mxGeometry x="226" y="485" width="100" height="60" as="geometry"/>
                </mxCell>
                <mxCell id="262" style="edgeStyle=none;html=1;elbow=vertical;" parent="1" source="111" edge="1">
                    <mxGeometry relative="1" as="geometry">
                        <mxPoint x="396" y="567" as="targetPoint"/>
                    </mxGeometry>
                </mxCell>
                <mxCell id="111" value="Pol 60" style="rounded=0;whiteSpace=wrap;html=1;shadow=0;sketch=0;fillColor=default;rotation=0;" parent="1" vertex="1">
                    <mxGeometry x="346" y="485" width="100" height="60" as="geometry"/>
                </mxCell>
                <mxCell id="263" style="edgeStyle=none;html=1;elbow=vertical;" parent="1" source="112" edge="1">
                    <mxGeometry relative="1" as="geometry">
                        <mxPoint x="502" y="567" as="targetPoint"/>
                    </mxGeometry>
                </mxCell>
                <mxCell id="112" value="Uncertainty 60" style="rounded=0;whiteSpace=wrap;html=1;shadow=0;sketch=0;fillColor=default;rotation=0;" parent="1" vertex="1">
                    <mxGeometry x="452" y="485" width="100" height="60" as="geometry"/>
                </mxCell>
                <mxCell id="264" style="edgeStyle=none;html=1;elbow=vertical;" parent="1" source="113" edge="1">
                    <mxGeometry relative="1" as="geometry">
                        <mxPoint x="622" y="567" as="targetPoint"/>
                    </mxGeometry>
                </mxCell>
                <mxCell id="113" value="Pol 120" style="rounded=0;whiteSpace=wrap;html=1;shadow=0;sketch=0;fillColor=default;rotation=0;" parent="1" vertex="1">
                    <mxGeometry x="572" y="485" width="100" height="60" as="geometry"/>
                </mxCell>
                <mxCell id="265" style="edgeStyle=none;html=1;elbow=vertical;" parent="1" source="114" edge="1">
                    <mxGeometry relative="1" as="geometry">
                        <mxPoint x="728" y="567" as="targetPoint"/>
                    </mxGeometry>
                </mxCell>
                <mxCell id="114" value="Uncertainty 120" style="rounded=0;whiteSpace=wrap;html=1;shadow=0;sketch=0;fillColor=default;rotation=0;" parent="1" vertex="1">
                    <mxGeometry x="678" y="485" width="100" height="60" as="geometry"/>
                </mxCell>
                <mxCell id="195" style="edgeStyle=elbowEdgeStyle;elbow=vertical;html=1;entryX=0.5;entryY=0.063;entryDx=0;entryDy=0;entryPerimeter=0;" parent="1" target="38" edge="1">
                    <mxGeometry relative="1" as="geometry">
                        <mxPoint x="631.9999999999998" y="361" as="sourcePoint"/>
                    </mxGeometry>
                </mxCell>
                <mxCell id="171" value="Pol 120" style="shape=cube;whiteSpace=wrap;html=1;boundedLbl=1;backgroundOutline=1;darkOpacity=0.05;darkOpacity2=0.1;movable=1;resizable=1;rotatable=1;deletable=1;editable=1;connectable=1;container=0;flipH=1;" parent="1" vertex="1">
                    <mxGeometry x="572" y="287" width="120" height="80" as="geometry"/>
                </mxCell>
                <mxCell id="193" style="edgeStyle=elbowEdgeStyle;elbow=vertical;html=1;entryX=0.5;entryY=0.063;entryDx=0;entryDy=0;entryPerimeter=0;" parent="1" target="34" edge="1">
                    <mxGeometry relative="1" as="geometry">
                        <mxPoint x="406" y="361" as="sourcePoint"/>
                    </mxGeometry>
                </mxCell>
                <mxCell id="172" value="Pol 60" style="shape=cube;whiteSpace=wrap;html=1;boundedLbl=1;backgroundOutline=1;darkOpacity=0.05;darkOpacity2=0.1;movable=1;resizable=1;rotatable=1;deletable=1;editable=1;connectable=1;container=0;flipH=1;" parent="1" vertex="1">
                    <mxGeometry x="346" y="287" width="120" height="80" as="geometry"/>
                </mxCell>
                <mxCell id="191" style="edgeStyle=elbowEdgeStyle;elbow=vertical;html=1;entryX=0.5;entryY=0.063;entryDx=0;entryDy=0;entryPerimeter=0;" parent="1" target="6" edge="1">
                    <mxGeometry relative="1" as="geometry">
                        <mxPoint x="180" y="361" as="sourcePoint"/>
                    </mxGeometry>
                </mxCell>
                <mxCell id="173" value="Pol 0" style="shape=cube;whiteSpace=wrap;html=1;boundedLbl=1;backgroundOutline=1;darkOpacity=0.05;darkOpacity2=0.1;movable=1;resizable=1;rotatable=1;deletable=1;editable=1;connectable=1;container=0;flipH=1;" parent="1" vertex="1">
                    <mxGeometry x="120" y="287" width="120" height="80" as="geometry"/>
                </mxCell>
                <mxCell id="196" style="edgeStyle=elbowEdgeStyle;elbow=vertical;html=1;entryX=0.5;entryY=0.063;entryDx=0;entryDy=0;entryPerimeter=0;" parent="1" target="37" edge="1">
                    <mxGeometry relative="1" as="geometry">
                        <mxPoint x="738" y="361" as="sourcePoint"/>
                    </mxGeometry>
                </mxCell>
                <mxCell id="174" value="Uncertainty 120" style="shape=cube;whiteSpace=wrap;html=1;boundedLbl=1;backgroundOutline=1;darkOpacity=0.05;darkOpacity2=0.1;movable=1;resizable=1;rotatable=1;deletable=1;editable=1;connectable=1;container=0;flipH=1;" parent="1" vertex="1">
                    <mxGeometry x="678" y="287" width="120" height="80" as="geometry"/>
                </mxCell>
                <mxCell id="175" value="Uncertainty 60" style="shape=cube;whiteSpace=wrap;html=1;boundedLbl=1;backgroundOutline=1;darkOpacity=0.05;darkOpacity2=0.1;movable=1;resizable=1;rotatable=1;deletable=1;editable=1;connectable=1;container=0;flipH=1;" parent="1" vertex="1">
                    <mxGeometry x="452" y="287" width="120" height="80" as="geometry"/>
                </mxCell>
                <mxCell id="176" value="Uncertainty 0" style="shape=cube;whiteSpace=wrap;html=1;boundedLbl=1;backgroundOutline=1;darkOpacity=0.05;darkOpacity2=0.1;movable=1;resizable=1;rotatable=1;deletable=1;editable=1;connectable=1;container=0;flipH=1;" parent="1" vertex="1">
                    <mxGeometry x="226" y="287" width="120" height="80" as="geometry"/>
                </mxCell>
                <mxCell id="187" style="edgeStyle=elbowEdgeStyle;elbow=vertical;html=1;entryX=0.475;entryY=0.125;entryDx=0;entryDy=0;entryPerimeter=0;" parent="1" target="171" edge="1">
                    <mxGeometry relative="1" as="geometry">
                        <mxPoint x="683" y="269" as="sourcePoint"/>
                    </mxGeometry>
                </mxCell>
                <mxCell id="188" style="edgeStyle=elbowEdgeStyle;elbow=vertical;html=1;entryX=0.525;entryY=0.125;entryDx=0;entryDy=0;entryPerimeter=0;" parent="1" target="174" edge="1">
                    <mxGeometry relative="1" as="geometry">
                        <mxPoint x="683" y="269" as="sourcePoint"/>
                    </mxGeometry>
                </mxCell>
                <mxCell id="177" value="HWP 120.0" style="shape=cube;whiteSpace=wrap;html=1;boundedLbl=1;backgroundOutline=1;darkOpacity=0.05;darkOpacity2=0.1;flipH=1;container=0;" parent="1" vertex="1">
                    <mxGeometry x="623" y="192" width="120" height="80" as="geometry"/>
                </mxCell>
                <mxCell id="185" style="edgeStyle=elbowEdgeStyle;elbow=vertical;html=1;entryX=0.508;entryY=0.125;entryDx=0;entryDy=0;entryPerimeter=0;" parent="1" target="172" edge="1">
                    <mxGeometry relative="1" as="geometry">
                        <mxPoint x="460.0000000000002" y="269" as="sourcePoint"/>
                    </mxGeometry>
                </mxCell>
                <mxCell id="186" style="edgeStyle=elbowEdgeStyle;elbow=vertical;html=1;entryX=0.475;entryY=0.125;entryDx=0;entryDy=0;entryPerimeter=0;" parent="1" target="175" edge="1">
                    <mxGeometry relative="1" as="geometry">
                        <mxPoint x="460.0000000000002" y="269" as="sourcePoint"/>
                    </mxGeometry>
                </mxCell>
                <mxCell id="178" value="HWP 60.0" style="shape=cube;whiteSpace=wrap;html=1;boundedLbl=1;backgroundOutline=1;darkOpacity=0.05;darkOpacity2=0.1;movable=1;resizable=1;rotatable=1;deletable=1;editable=1;connectable=1;flipH=1;container=0;" parent="1" vertex="1">
                    <mxGeometry x="400" y="192" width="120" height="80" as="geometry"/>
                </mxCell>
                <mxCell id="183" style="edgeStyle=elbowEdgeStyle;elbow=vertical;html=1;entryX=0.458;entryY=0.125;entryDx=0;entryDy=0;entryPerimeter=0;" parent="1" target="173" edge="1">
                    <mxGeometry relative="1" as="geometry">
                        <mxPoint x="234" y="269" as="sourcePoint"/>
                    </mxGeometry>
                </mxCell>
                <mxCell id="184" style="edgeStyle=elbowEdgeStyle;elbow=vertical;html=1;entryX=0.508;entryY=0.125;entryDx=0;entryDy=0;entryPerimeter=0;" parent="1" target="176" edge="1">
                    <mxGeometry relative="1" as="geometry">
                        <mxPoint x="234" y="269" as="sourcePoint"/>
                    </mxGeometry>
                </mxCell>
                <mxCell id="179" value="HWP 0.0" style="shape=cube;whiteSpace=wrap;html=1;boundedLbl=1;backgroundOutline=1;darkOpacity=0.05;darkOpacity2=0.1;flipH=1;container=0;" parent="1" vertex="1">
                    <mxGeometry x="174" y="192" width="120" height="80" as="geometry"/>
                </mxCell>
                <mxCell id="221" style="edgeStyle=orthogonalEdgeStyle;html=1;elbow=vertical;exitX=0.436;exitY=1.002;exitDx=0;exitDy=0;exitPerimeter=0;" parent="1" source="173" edge="1">
                    <mxGeometry relative="1" as="geometry">
                        <mxPoint x="286" y="375" as="targetPoint"/>
                        <mxPoint x="187.80000000000018" y="362.48" as="sourcePoint"/>
                        <Array as="points">
                            <mxPoint x="188" y="375"/>
                        </Array>
                    </mxGeometry>
                </mxCell>
                <mxCell id="192" style="edgeStyle=elbowEdgeStyle;elbow=vertical;html=1;entryX=0.5;entryY=0.063;entryDx=0;entryDy=0;entryPerimeter=0;exitX=0.5;exitY=1.002;exitDx=0;exitDy=0;exitPerimeter=0;" parent="1" source="176" target="7" edge="1">
                    <mxGeometry relative="1" as="geometry">
                        <mxPoint x="286" y="361" as="sourcePoint"/>
                    </mxGeometry>
                </mxCell>
                <mxCell id="222" style="edgeStyle=orthogonalEdgeStyle;html=1;elbow=vertical;exitX=0.452;exitY=1.002;exitDx=0;exitDy=0;exitPerimeter=0;" parent="1" source="172" edge="1">
                    <mxGeometry relative="1" as="geometry">
                        <mxPoint x="512" y="375" as="targetPoint"/>
                        <mxPoint x="411.88" y="361.76" as="sourcePoint"/>
                        <Array as="points">
                            <mxPoint x="412" y="375"/>
                        </Array>
                    </mxGeometry>
                </mxCell>
                <mxCell id="194" style="edgeStyle=elbowEdgeStyle;elbow=vertical;html=1;entryX=0.5;entryY=0.063;entryDx=0;entryDy=0;entryPerimeter=0;exitX=0.5;exitY=1.002;exitDx=0;exitDy=0;exitPerimeter=0;" parent="1" source="175" target="33" edge="1">
                    <mxGeometry relative="1" as="geometry">
                        <mxPoint x="511.9999999999998" y="361" as="sourcePoint"/>
                    </mxGeometry>
                </mxCell>
                <mxCell id="241" style="edgeStyle=orthogonalEdgeStyle;html=1;entryX=0.488;entryY=0.138;entryDx=0;entryDy=0;entryPerimeter=0;elbow=vertical;" parent="1" target="178" edge="1">
                    <mxGeometry relative="1" as="geometry">
                        <mxPoint x="461.48275862068976" y="177.9999999999999" as="sourcePoint"/>
                    </mxGeometry>
                </mxCell>
                <mxCell id="242" style="edgeStyle=orthogonalEdgeStyle;html=1;entryX=0.488;entryY=0.138;entryDx=0;entryDy=0;entryPerimeter=0;elbow=vertical;" parent="1" target="177" edge="1">
                    <mxGeometry relative="1" as="geometry">
                        <mxPoint x="684.5172413793102" y="177.9999999999999" as="sourcePoint"/>
                    </mxGeometry>
                </mxCell>
                <mxCell id="243" style="edgeStyle=orthogonalEdgeStyle;html=1;entryX=0.488;entryY=0.138;entryDx=0;entryDy=0;entryPerimeter=0;elbow=vertical;" parent="1" target="179" edge="1">
                    <mxGeometry relative="1" as="geometry">
                        <mxPoint x="235.48275862068954" y="177.9999999999999" as="sourcePoint"/>
                    </mxGeometry>
                </mxCell>
                <mxCell id="35" value="HWP 120.0" style="shape=cube;whiteSpace=wrap;html=1;boundedLbl=1;backgroundOutline=1;darkOpacity=0.05;darkOpacity2=0.1;flipH=1;container=0;" parent="1" vertex="1">
                    <mxGeometry x="624.5" y="103" width="120" height="80" as="geometry"/>
                </mxCell>
                <mxCell id="26" value="HWP 60.0" style="shape=cube;whiteSpace=wrap;html=1;boundedLbl=1;backgroundOutline=1;darkOpacity=0.05;darkOpacity2=0.1;movable=1;resizable=1;rotatable=1;deletable=1;editable=1;connectable=1;flipH=1;container=0;" parent="1" vertex="1">
                    <mxGeometry x="401.5" y="103" width="120" height="80" as="geometry"/>
                </mxCell>
                <mxCell id="4" value="HWP 0.0" style="shape=cube;whiteSpace=wrap;html=1;boundedLbl=1;backgroundOutline=1;darkOpacity=0.05;darkOpacity2=0.1;flipH=1;container=0;" parent="1" vertex="1">
                    <mxGeometry x="175.5" y="103" width="120" height="80" as="geometry"/>
                </mxCell>
                <mxCell id="244" value="Crop Data" style="html=1;shadow=0;dashed=0;align=center;verticalAlign=middle;shape=mxgraph.arrows2.arrow;dy=0;dx=10;notch=0;sketch=0;fillColor=default;" parent="1" vertex="1">
                    <mxGeometry x="10" y="180" width="130" height="17.7165" as="geometry"/>
                </mxCell>
                <mxCell id="245" value="Subtract Background" style="html=1;shadow=0;dashed=0;align=center;verticalAlign=middle;shape=mxgraph.arrows2.arrow;dy=0;dx=10;notch=0;sketch=0;fillColor=default;" parent="1" vertex="1">
                    <mxGeometry x="10" y="275" width="130" height="17.7165" as="geometry"/>
                </mxCell>
                <mxCell id="246" value="Align Data" style="html=1;shadow=0;dashed=0;align=center;verticalAlign=middle;shape=mxgraph.arrows2.arrow;dy=0;dx=10;notch=0;sketch=0;fillColor=default;" parent="1" vertex="1">
                    <mxGeometry x="10" y="369" width="130" height="17.7165" as="geometry"/>
                </mxCell>
                <mxCell id="247" value="Combine Data" style="html=1;shadow=0;dashed=0;align=center;verticalAlign=middle;shape=mxgraph.arrows2.arrow;dy=0;dx=10;notch=0;sketch=0;fillColor=default;" parent="1" vertex="1">
                    <mxGeometry x="10" y="466" width="130" height="17.7165" as="geometry"/>
                </mxCell>
                <mxCell id="225" style="edgeStyle=orthogonalEdgeStyle;html=1;elbow=vertical;exitX=0.433;exitY=0.995;exitDx=0;exitDy=0;exitPerimeter=0;" parent="1" source="171" edge="1">
                    <mxGeometry relative="1" as="geometry">
                        <mxPoint x="738" y="375" as="targetPoint"/>
                        <mxPoint x="639.9199999999998" y="362.48" as="sourcePoint"/>
                        <Array as="points">
                            <mxPoint x="640" y="375"/>
                        </Array>
                    </mxGeometry>
                </mxCell>
                <mxCell id="274" style="edgeStyle=none;html=1;entryX=0.5;entryY=0;entryDx=0;entryDy=0;elbow=vertical;" parent="1" source="248" target="268" edge="1">
                    <mxGeometry relative="1" as="geometry"/>
                </mxCell>
                <mxCell id="248" value="Stokes" style="swimlane;horizontal=0;whiteSpace=wrap;html=1;container=0;" parent="1" vertex="1">
                    <mxGeometry x="120" y="567" width="680" height="103" as="geometry">
                        <mxRectangle x="111" y="160" width="40" height="80" as="alternateBounds"/>
                    </mxGeometry>
                </mxCell>
                <mxCell id="249" value="Stokes I" style="rounded=0;whiteSpace=wrap;html=1;shadow=0;sketch=0;fillColor=default;" parent="248" vertex="1">
                    <mxGeometry x="40" y="12" width="130" height="60" as="geometry"/>
                </mxCell>
                <mxCell id="250" value="Stokes Q" style="rounded=0;whiteSpace=wrap;html=1;shadow=0;sketch=0;fillColor=default;" parent="248" vertex="1">
                    <mxGeometry x="201" y="12" width="130" height="60" as="geometry"/>
                </mxCell>
                <mxCell id="251" value="Stokes U" style="rounded=0;whiteSpace=wrap;html=1;shadow=0;sketch=0;fillColor=default;" parent="248" vertex="1">
                    <mxGeometry x="363" y="12" width="130" height="60" as="geometry"/>
                </mxCell>
                <mxCell id="253" value="Stokes IQU covariance" style="shape=cube;whiteSpace=wrap;html=1;boundedLbl=1;backgroundOutline=1;darkOpacity=0.05;darkOpacity2=0.1;shadow=0;sketch=0;fillColor=default;flipH=1;size=10;" parent="248" vertex="1">
                    <mxGeometry x="519" y="5" width="140" height="68.8975" as="geometry"/>
                </mxCell>
                <mxCell id="266" value="See Section 2.7 for computation" style="text;html=1;strokeColor=none;fillColor=none;align=center;verticalAlign=middle;whiteSpace=wrap;rounded=0;shadow=0;sketch=0;" parent="248" vertex="1">
                    <mxGeometry x="30" y="74" width="640" height="30" as="geometry"/>
                </mxCell>
                <mxCell id="256" value="Compute Stoke" style="html=1;shadow=0;dashed=0;align=center;verticalAlign=middle;shape=mxgraph.arrows2.arrow;dy=0;dx=10;notch=0;sketch=0;fillColor=default;" parent="1" vertex="1">
                    <mxGeometry x="10" y="547" width="130" height="17.7165" as="geometry"/>
                </mxCell>
                <mxCell id="282" style="edgeStyle=none;html=1;entryX=0.5;entryY=0;entryDx=0;entryDy=0;elbow=vertical;" parent="1" source="268" target="276" edge="1">
                    <mxGeometry relative="1" as="geometry"/>
                </mxCell>
                <mxCell id="268" value="Rotated Stokes" style="swimlane;horizontal=0;whiteSpace=wrap;html=1;container=0;" parent="1" vertex="1">
                    <mxGeometry x="120" y="693" width="680" height="90" as="geometry">
                        <mxRectangle x="111" y="160" width="40" height="80" as="alternateBounds"/>
                    </mxGeometry>
                </mxCell>
                <mxCell id="269" value="Stokes I" style="rounded=0;whiteSpace=wrap;html=1;shadow=0;sketch=0;fillColor=default;" parent="268" vertex="1">
                    <mxGeometry x="40" y="15" width="130" height="60" as="geometry"/>
                </mxCell>
                <mxCell id="270" value="Stokes Q" style="rounded=0;whiteSpace=wrap;html=1;shadow=0;sketch=0;fillColor=default;" parent="268" vertex="1">
                    <mxGeometry x="201" y="15" width="130" height="60" as="geometry"/>
                </mxCell>
                <mxCell id="271" value="Stokes U" style="rounded=0;whiteSpace=wrap;html=1;shadow=0;sketch=0;fillColor=default;" parent="268" vertex="1">
                    <mxGeometry x="363" y="15" width="130" height="60" as="geometry"/>
                </mxCell>
                <mxCell id="272" value="Stokes IQU covariance" style="shape=cube;whiteSpace=wrap;html=1;boundedLbl=1;backgroundOutline=1;darkOpacity=0.05;darkOpacity2=0.1;shadow=0;sketch=0;fillColor=default;flipH=1;size=10;" parent="268" vertex="1">
                    <mxGeometry x="519" y="8.551250000000003" width="140" height="68.8975" as="geometry"/>
                </mxCell>
                <mxCell id="275" value="Rotate Stoke" style="html=1;shadow=0;dashed=0;align=center;verticalAlign=middle;shape=mxgraph.arrows2.arrow;dy=0;dx=10;notch=0;sketch=0;fillColor=default;" parent="1" vertex="1">
                    <mxGeometry x="10" y="673" width="130" height="17.7165" as="geometry"/>
                </mxCell>
                <mxCell id="276" value="Polarization Parameters" style="swimlane;horizontal=0;whiteSpace=wrap;html=1;container=0;" parent="1" vertex="1">
                    <mxGeometry x="120" y="807" width="680" height="93" as="geometry">
                        <mxRectangle x="111" y="160" width="40" height="80" as="alternateBounds"/>
                    </mxGeometry>
                </mxCell>
                <mxCell id="277" value="Debiased Polarization Degree" style="rounded=0;whiteSpace=wrap;html=1;shadow=0;sketch=0;fillColor=default;" parent="276" vertex="1">
                    <mxGeometry x="40" y="9" width="130" height="60" as="geometry"/>
                </mxCell>
                <mxCell id="278" value="Polarization Angle" style="rounded=0;whiteSpace=wrap;html=1;shadow=0;sketch=0;fillColor=default;" parent="276" vertex="1">
                    <mxGeometry x="203" y="9" width="130" height="60" as="geometry"/>
                </mxCell>
                <mxCell id="279" value="Polarized Flux" style="rounded=0;whiteSpace=wrap;html=1;shadow=0;sketch=0;fillColor=default;" parent="276" vertex="1">
                    <mxGeometry x="367" y="9" width="130" height="60" as="geometry"/>
                </mxCell>
                <mxCell id="281" value="Polarization Degree Uncertainty" style="rounded=0;whiteSpace=wrap;html=1;shadow=0;sketch=0;fillColor=default;" parent="276" vertex="1">
                    <mxGeometry x="530" y="9" width="130" height="60" as="geometry"/>
                </mxCell>
                <mxCell id="291" value="See Section 2.7 for computation" style="text;html=1;strokeColor=none;fillColor=none;align=center;verticalAlign=middle;whiteSpace=wrap;rounded=0;shadow=0;sketch=0;" parent="276" vertex="1">
                    <mxGeometry x="30" y="69" width="640" height="30" as="geometry"/>
                </mxCell>
                <mxCell id="283" value="Compute Polarization" style="html=1;shadow=0;dashed=0;align=center;verticalAlign=middle;shape=mxgraph.arrows2.arrow;dy=0;dx=10;notch=0;sketch=0;fillColor=default;" parent="1" vertex="1">
                    <mxGeometry x="10" y="786" width="130" height="17.7165" as="geometry"/>
                </mxCell>
                <mxCell id="136" style="edgeStyle=elbowEdgeStyle;elbow=vertical;html=1;entryX=0.483;entryY=0.188;entryDx=0;entryDy=0;entryPerimeter=0;" parent="1" source="13" target="4" edge="1">
                    <mxGeometry relative="1" as="geometry"/>
                </mxCell>
                <mxCell id="137" style="edgeStyle=elbowEdgeStyle;elbow=vertical;html=1;entryX=0.475;entryY=0.188;entryDx=0;entryDy=0;entryPerimeter=0;" parent="1" source="13" target="35" edge="1">
                    <mxGeometry relative="1" as="geometry"/>
                </mxCell>
                <mxCell id="240" style="edgeStyle=orthogonalEdgeStyle;html=1;entryX=0.521;entryY=0.188;entryDx=0;entryDy=0;entryPerimeter=0;elbow=vertical;" parent="1" source="13" target="26" edge="1">
                    <mxGeometry relative="1" as="geometry"/>
                </mxCell>
                <mxCell id="284" value="Compute maximal or minimal convex hull for all images" style="text;html=1;strokeColor=none;fillColor=none;align=left;verticalAlign=top;whiteSpace=wrap;rounded=0;shadow=0;sketch=0;fontSize=10;labelPosition=center;verticalLabelPosition=middle;spacing=0;spacingTop=-2;" parent="1" vertex="1">
                    <mxGeometry x="10" y="200" width="110" height="50" as="geometry"/>
                </mxCell>
                <mxCell id="285" value="Compute and subtract mean value of the Gaussian-fitted intensity histogram and compute first order uncertainties" style="text;html=1;strokeColor=none;fillColor=none;align=left;verticalAlign=top;whiteSpace=wrap;rounded=0;shadow=0;sketch=0;fontSize=10;labelPosition=center;verticalLabelPosition=middle;spacing=0;spacingTop=-2;" parent="1" vertex="1">
                    <mxGeometry x="10" y="292.72" width="110" height="67.28" as="geometry"/>
                </mxCell>
                <mxCell id="286" value="Aligned background subtracted images using cross-correlation and propagate uncertainties through image displacement" style="text;html=1;strokeColor=none;fillColor=none;align=left;verticalAlign=top;whiteSpace=wrap;rounded=0;shadow=0;sketch=0;fontSize=10;labelPosition=center;verticalLabelPosition=middle;spacing=0;spacingTop=-2;" parent="1" vertex="1">
                    <mxGeometry x="10" y="386.72" width="110" height="73.28" as="geometry"/>
                </mxCell>
                <mxCell id="287" value="Combine multiple observations through same filter with weighted gaussian smoothing" style="text;html=1;strokeColor=none;fillColor=none;align=left;verticalAlign=top;whiteSpace=wrap;rounded=0;shadow=0;sketch=0;fontSize=10;spacing=0;spacingTop=-2;" parent="1" vertex="1">
                    <mxGeometry x="10" y="483.72" width="110" height="56.28" as="geometry"/>
                </mxCell>
                <mxCell id="289" value="Rotate computed Stokes parameters and uncertainties to have North up" style="text;html=1;strokeColor=none;fillColor=none;align=left;verticalAlign=top;whiteSpace=wrap;rounded=0;shadow=0;sketch=0;fontSize=10;spacing=0;spacingTop=-2;" parent="1" vertex="1">
                    <mxGeometry x="10" y="690.72" width="110" height="82.28" as="geometry"/>
                </mxCell>
                <mxCell id="290" value="Compute polarization parameters from the rotated Stokes parameters and uncertainties" style="text;html=1;strokeColor=none;fillColor=none;align=left;verticalAlign=top;whiteSpace=wrap;rounded=0;shadow=0;sketch=0;fontSize=10;spacing=0;spacingTop=-2;" parent="1" vertex="1">
                    <mxGeometry x="10" y="803.72" width="110" height="79.28" as="geometry"/>
                </mxCell>
                <mxCell id="292" value="Compute the Stokes parameters and uncertainties from the combined images and uncertainties and propagate polarizer axis uncertainty" style="text;html=1;strokeColor=none;fillColor=none;align=left;verticalAlign=top;whiteSpace=wrap;rounded=0;shadow=0;sketch=0;fontSize=10;spacing=0;spacingTop=-2;" parent="1" vertex="1">
                    <mxGeometry x="10" y="564.72" width="110" height="105.28" as="geometry"/>
                </mxCell>
            </root>
        </mxGraphModel>
    </diagram>
</mxfile>